<svg xmlns="http://www.w3.org/2000/svg" width="32" height="32" xml:space="preserve"><path d="M4.895 21.762a.503.503 0 0 0-.192.685.503.503 0 0 0 .469.248.42.42 0 0 0 .215-.065.483.483 0 0 0 .184-.674.493.493 0 0 0-.676-.194zm1.061 1.7a.487.487 0 0 0-.082.697.5.5 0 1 0 .778-.626.486.486 0 0 0-.696-.071zm1.308 1.502a.513.513 0 0 0 .04.709l-.001-.01c.107.103.24.144.37.135a.523.523 0 0 0 .34-.164.503.503 0 0 0-.749-.67zm-2.507-4.746a.494.494 0 0 0-.643-.297.514.514 0 0 0-.296.642.51.51 0 0 0 .504.326c.05-.004.1-.018.148-.03a.5.5 0 0 0 .287-.641zm-.91-1.261c.268-.048.438-.32.39-.588a.503.503 0 0 0-.589-.39.492.492 0 0 0-.39.589.49.49 0 0 0 .519.395l.07-.006zm-.319-1.972.02-.002a.488.488 0 0 0 .456-.513l.01-.001c-.02-.279-.245-.494-.525-.484s-.494.245-.485.516l.01-.001a.495.495 0 0 0 .514.485zm20.447 7.97a.503.503 0 0 0-.04.709c.093.106.21.155.34.164s.263-.032.369-.125a.49.49 0 0 0 .039-.698.503.503 0 0 0-.708-.05zm3.886-4.981a.498.498 0 0 0-.643.297.5.5 0 0 0 .286.641.707.707 0 0 0 .148.03.488.488 0 0 0 .494-.326.499.499 0 0 0-.285-.642zm.716-3.929a.502.502 0 0 0-.589.389.504.504 0 0 0 .391.589c.028.013.049.014.068.016a.511.511 0 0 0 .529-.404.508.508 0 0 0-.399-.59zm-.239 1.987a.503.503 0 0 0-.589.39.505.505 0 0 0 .391.589c.028.013.049.014.068.016a.513.513 0 0 0 .529-.404.51.51 0 0 0-.399-.591zm-3.033 5.542a.5.5 0 0 0 .353.816.508.508 0 0 0 .424-.181.507.507 0 0 0-.071-.706.498.498 0 0 0-.706.071zm1.766-1.761a.49.49 0 0 0-.674.184.498.498 0 0 0 .398.749.48.48 0 0 0 .459-.248.492.492 0 0 0-.183-.685zM13.801 3.186a.51.51 0 0 0-.411.579.507.507 0 0 0 .53.415l.05-.004a.512.512 0 0 0 .411-.58.516.516 0 0 0-.58-.41zM15.872 3a.496.496 0 0 0-.495.506.496.496 0 0 0 .506.496L15.912 4a.504.504 0 0 0 .467-.504.51.51 0 0 0-.507-.496zm2.066.146c-.273-.041-.521.146-.562.42s.146.521.421.572c.03-.002.07.005.101.003a.505.505 0 0 0 .462-.424.505.505 0 0 0-.422-.571zm3.59 23.689a.502.502 0 0 1-.461-.695A5.457 5.457 0 0 0 21.5 24c0-3.032-2.468-5.5-5.5-5.5a5.507 5.507 0 0 0-5.08 7.612.5.5 0 1 1-.924.382A6.508 6.508 0 0 1 16 17.5a6.508 6.508 0 0 1 5.989 9.03.5.5 0 0 1-.461.305z" fill="#263238"/><path fill="#263238" d="M16 30.5a6.454 6.454 0 0 1-4.571-1.882.504.504 0 0 1-.104-.563A3.5 3.5 0 0 1 14.5 26h3c1.362 0 2.608.807 3.175 2.056a.5.5 0 0 1-.104.563A6.457 6.457 0 0 1 16 30.5zm-3.597-2.341c1 .867 2.264 1.341 3.597 1.341s2.597-.474 3.597-1.341A2.493 2.493 0 0 0 17.5 27h-3c-.853 0-1.643.445-2.097 1.159zM16 25c-1.379 0-2.5-1.121-2.5-2.5S14.621 20 16 20s2.5 1.121 2.5 2.5S17.379 25 16 25zm0-4c-.827 0-1.5.673-1.5 1.5S15.173 24 16 24s1.5-.673 1.5-1.5S16.827 21 16 21zm14.028-9.165a.5.5 0 0 1-.461-.695A5.46 5.46 0 0 0 30 9c0-3.033-2.468-5.5-5.5-5.5a5.506 5.506 0 0 0-5.08 7.612.501.501 0 0 1-.924.384A6.508 6.508 0 0 1 24.5 2.5a6.508 6.508 0 0 1 5.989 9.03.5.5 0 0 1-.461.305z"/><path fill="#263238" d="M24.5 15.5a6.454 6.454 0 0 1-4.571-1.882.502.502 0 0 1-.104-.562A3.499 3.499 0 0 1 23 11h3c1.362 0 2.608.807 3.175 2.056a.499.499 0 0 1-.104.562A6.454 6.454 0 0 1 24.5 15.5zm-3.597-2.341c1 .867 2.264 1.341 3.597 1.341s2.597-.474 3.597-1.341A2.493 2.493 0 0 0 26 12h-3c-.853 0-1.643.445-2.097 1.159zM24.5 10C23.121 10 22 8.878 22 7.5S23.121 5 24.5 5 27 6.122 27 7.5 25.879 10 24.5 10zm0-4c-.827 0-1.5.673-1.5 1.5S23.673 9 24.5 9 26 8.327 26 7.5 25.327 6 24.5 6zm-11.472 5.835a.5.5 0 0 1-.461-.695A5.46 5.46 0 0 0 13 9c0-3.033-2.468-5.5-5.5-5.5a5.506 5.506 0 0 0-5.08 7.612.501.501 0 0 1-.924.384A6.508 6.508 0 0 1 7.5 2.5a6.508 6.508 0 0 1 5.989 9.03.5.5 0 0 1-.461.305z"/><path fill="#263238" d="M7.5 15.5a6.454 6.454 0 0 1-4.571-1.882.502.502 0 0 1-.104-.562A3.499 3.499 0 0 1 6 11h3c1.362 0 2.608.807 3.175 2.056a.499.499 0 0 1-.104.562A6.454 6.454 0 0 1 7.5 15.5zm-3.597-2.341c1 .867 2.264 1.341 3.597 1.341s2.597-.474 3.597-1.341A2.493 2.493 0 0 0 9 12H6c-.853 0-1.643.445-2.097 1.159zM7.5 10C6.121 10 5 8.878 5 7.5S6.121 5 7.5 5 10 6.122 10 7.5 8.879 10 7.5 10zm0-4C6.673 6 6 6.673 6 7.5S6.673 9 7.5 9 9 8.327 9 7.5 8.327 6 7.5 6z"/></svg>