<svg xmlns="http://www.w3.org/2000/svg" width="32" height="32" xml:space="preserve"><g fill="#263238"><path d="M20.5 26h-4a.5.5 0 0 1 0-1h4c.275 0 .5-.225.5-.5v-3a.5.5 0 0 1 1 0v3c0 .827-.673 1.5-1.5 1.5zm-11 5a.499.499 0 0 1-.5-.5V29H4.5a.5.5 0 0 1 0-1h5a.5.5 0 0 1 .5.5v1.089L14.068 27 10 24.411V25.5a.5.5 0 0 1-.5.5h-7c-.827 0-1.5-.673-1.5-1.5v-11c0-.827.673-1.5 1.5-1.5H4V8.5c0-.215.138-.406.342-.475A.504.504 0 0 1 4.9 8.2L7.75 12h.75a.5.5 0 0 1 0 1h-1a.5.5 0 0 1-.4-.2L5 10v2.5a.5.5 0 0 1-.5.5h-2c-.275 0-.5.225-.5.5v11c0 .275.225.5.5.5H9v-1.5a.498.498 0 0 1 .769-.421l5.5 3.5a.498.498 0 0 1 0 .843l-5.5 3.5A.5.5 0 0 1 9.5 31z"/><path d="M27.5 24a.498.498 0 0 1-.4-.2L24.25 20H11.5c-.827 0-1.5-.673-1.5-1.5v-11c0-.827.673-1.5 1.5-1.5h4a.5.5 0 0 1 0 1h-4c-.275 0-.5.225-.5.5v11c0 .275.225.5.5.5h13a.5.5 0 0 1 .4.2L27 22v-2.5a.5.5 0 0 1 .5-.5h2c.275 0 .5-.225.5-.5v-6a.5.5 0 0 1 1 0v6c0 .827-.673 1.5-1.5 1.5H28v3.5a.502.502 0 0 1-.5.5z"/><path d="M27.5 24a.498.498 0 0 1-.4-.2L24.25 20H22.5a.5.5 0 0 1 0-1h2a.5.5 0 0 1 .4.2L27 22v-2.5a.5.5 0 0 1 .5-.5h2c.275 0 .5-.225.5-.5v-11c0-.275-.225-.5-.5-.5H23v1.5a.498.498 0 0 1-.769.421l-5.5-3.5a.498.498 0 0 1 0-.843l5.5-3.5A.502.502 0 0 1 23 1.5V3h4.5a.5.5 0 0 1 0 1h-5a.5.5 0 0 1-.5-.5V2.411L17.932 5 22 7.589V6.5a.5.5 0 0 1 .5-.5h7c.827 0 1.5.673 1.5 1.5v11c0 .827-.673 1.5-1.5 1.5H28v3.5a.502.502 0 0 1-.5.5z"/></g><circle fill="#263238" cx="2.5" cy="28.5" r=".5"/><circle fill="#263238" cx="29.5" cy="3.5" r=".5"/><path fill="#263238" d="M18.5 14a.5.5 0 0 0 0-1 .5.5 0 0 0 0 1zm2 0a.5.5 0 0 0 0-1 .5.5 0 0 0 0 1zm2 0a.5.5 0 0 0 0-1 .5.5 0 0 0 0 1z"/></svg>