<svg xmlns="http://www.w3.org/2000/svg" width="32" height="32" xml:space="preserve"><path fill="#263238" d="M10.5 25h-4a.5.5 0 0 1 0-1h1c.827 0 1.5-.673 1.5-1.5v-2a.5.5 0 0 1 1 0v2c0 .563-.187 1.082-.501 1.5H10.5a.5.5 0 0 1 0 1zm-9-7a.5.5 0 0 1-.5-.5v-12C1 4.673 1.673 4 2.5 4H7a.5.5 0 0 1 0 1H2.5a.5.5 0 0 0-.5.5v12a.5.5 0 0 1-.5.5z"/><path fill="#263238" d="M20.5 15a.5.5 0 0 1-.5-.5v-9a.5.5 0 0 0-.5-.5H7a.5.5 0 0 1 0-1h12.5c.827 0 1.5.673 1.5 1.5v9a.5.5 0 0 1-.5.5zm-10 4h-9a.5.5 0 0 1 0-1h9a.5.5 0 0 1 0 1z"/><path fill="#263238" d="M10.5 21h-8c-.827 0-1.5-.673-1.5-1.5v-2a.5.5 0 0 1 1 0v2a.5.5 0 0 0 .5.5h8a.5.5 0 0 1 0 1zM30 30H11c-.551 0-1-.449-1-1h21c0 .551-.449 1-1 1z"/><path fill="#263238" d="M30 30H11c-.551 0-1-.449-1-1a.5.5 0 0 1 1 0h19a.5.5 0 0 1 1 0c0 .551-.449 1-1 1z"/><path fill="#263238" d="M28.5 28.5a.5.5 0 0 1-.5-.5V17.5a.5.5 0 0 0-.5-.5h-14a.5.5 0 0 0-.5.5V28a.5.5 0 0 1-1 0V17.5c0-.827.673-1.5 1.5-1.5h14c.827 0 1.5.673 1.5 1.5V28a.5.5 0 0 1-.5.5zM8 29.5a.5.5 0 1 1-1.002-.002A.5.5 0 0 1 8 29.5zm-2 0a.5.5 0 1 1-1.002-.002A.5.5 0 0 1 6 29.5zm-2 0a.5.5 0 1 1-1.002-.002A.5.5 0 0 1 4 29.5zm24-25a.5.5 0 1 1-1.002-.002A.5.5 0 0 1 28 4.5zm-2 0a.5.5 0 1 1-1.002-.002A.5.5 0 0 1 26 4.5zm-2 0a.5.5 0 1 1-1.002-.002A.5.5 0 0 1 24 4.5z"/></svg>