<svg xmlns="http://www.w3.org/2000/svg" width="32" height="32" xml:space="preserve"><path d="M3.5 26a.5.5 0 0 1-.5-.5v-16C3 8.673 3.673 8 4.5 8h10.001a.5.5 0 0 1 0 1H4.5a.5.5 0 0 0-.5.5v16a.5.5 0 0 1-.5.5zm25 0a.5.5 0 0 1-.5-.5v-12a.5.5 0 0 1 1 0v12a.5.5 0 0 1-.5.5z" fill="#263238"/><path fill="#263238" d="M28.5 30h-25A2.502 2.502 0 0 1 1 27.5a.5.5 0 0 1 .5-.5h11a.5.5 0 0 1 0 1H2.086c.206.582.762 1 1.414 1h25c.652 0 1.208-.418 1.414-1H19.5a.5.5 0 0 1 0-1h11a.5.5 0 0 1 .5.5c0 1.379-1.121 2.5-2.5 2.5zM6.52 21.951a.5.5 0 0 1-.495-.576c.134-.871.802-1.67 1.587-1.901l2.676-1.253a.5.5 0 1 1 .422.906l-2.746 1.279c-.488.149-.875.631-.951 1.121a.499.499 0 0 1-.493.424z"/><path fill="#263238" d="M17.5 25.006a.5.5 0 0 1-.5-.5v-2.809c0-.533-.418-1.124-.895-1.265l-2.577-1.104-.322.178a2.49 2.49 0 0 1-2.411.001l-.321-.177-2.462 1.06C7.43 20.568 7 21.146 7 21.697v2.809a.5.5 0 0 1-1 0v-2.809c0-.994.718-1.959 1.67-2.245l2.632-1.136a.493.493 0 0 1 .438.021l.536.294c.453.25.994.25 1.446 0l.536-.295a.495.495 0 0 1 .439-.021l2.746 1.18c.849.244 1.557 1.222 1.557 2.202v2.809a.5.5 0 0 1-.5.5z"/><path fill="#263238" d="M17.5 25.006a.5.5 0 0 1-.5-.5v-2.809c0-.533-.418-1.124-.895-1.265l-2.816-1.306a.498.498 0 0 1-.289-.452v-1.186c0-.157.074-.305.199-.398.509-.386.801-.965.801-1.59v-1c0-1.55-.097-2.5-2-2.5s-2 .95-2 2.5v1c0 .625.292 1.204.801 1.59a.498.498 0 0 1 .199.398v1.188a.5.5 0 0 1-1 0v-.952A2.96 2.96 0 0 1 9 15.5v-1c0-1.309 0-3.5 3-3.5s3 2.191 3 3.5v1c0 .856-.361 1.653-1 2.224v.632l2.457 1.145c.835.238 1.543 1.216 1.543 2.196v2.809a.5.5 0 0 1-.5.5zm2-9.006a.502.502 0 0 1-.5-.5V12h-1.5c-.827 0-1.5-.673-1.5-1.5v-8c0-.827.673-1.5 1.5-1.5h12c.827 0 1.5.673 1.5 1.5v8c0 .827-.673 1.5-1.5 1.5h-6.75l-2.85 3.8a.498.498 0 0 1-.4.2zm-2-14a.5.5 0 0 0-.5.5v8a.5.5 0 0 0 .5.5h2a.5.5 0 0 1 .5.5V14l2.1-2.8a.5.5 0 0 1 .4-.2h7a.5.5 0 0 0 .5-.5v-8a.5.5 0 0 0-.5-.5h-12z"/><g fill="#263238"><circle cx="25.5" cy="7.5" r=".5"/><circle cx="23.5" cy="7.5" r=".5"/><circle cx="21.5" cy="7.5" r=".5"/></g></svg>