<svg xmlns="http://www.w3.org/2000/svg" width="32" height="32" xml:space="preserve"><path fill="#263238" d="M28.5 31h-3a.5.5 0 0 1-.5-.5v-7.511a.5.5 0 0 1 .778-.416l3 2a.503.503 0 0 1 .222.416V30.5a.5.5 0 0 1-.5.5zM26 30h2v-4.743l-2-1.333V30z"/><circle fill="#263238" cx="14.5" cy="28.5" r=".5"/><circle fill="#263238" cx="12.5" cy="28.5" r=".5"/><circle fill="#263238" cx="10.5" cy="28.5" r=".5"/><circle fill="#263238" cx="8.5" cy="28.5" r=".5"/><circle fill="#263238" cx="14.5" cy="26.5" r=".5"/><circle fill="#263238" cx="12.5" cy="26.5" r=".5"/><circle fill="#263238" cx="10.5" cy="26.5" r=".5"/><circle fill="#263238" cx="8.5" cy="26.5" r=".5"/><circle fill="#263238" cx="14.5" cy="24.5" r=".5"/><circle fill="#263238" cx="12.5" cy="24.5" r=".5"/><circle fill="#263238" cx="10.5" cy="24.5" r=".5"/><circle fill="#263238" cx="8.5" cy="24.5" r=".5"/><circle fill="#263238" cx="14.5" cy="22.5" r=".5"/><circle fill="#263238" cx="12.5" cy="22.5" r=".5"/><circle fill="#263238" cx="10.5" cy="22.5" r=".5"/><circle fill="#263238" cx="8.5" cy="22.5" r=".5"/><circle fill="#263238" cx="14.5" cy="20.5" r=".5"/><circle fill="#263238" cx="12.5" cy="20.5" r=".5"/><circle fill="#263238" cx="10.5" cy="20.5" r=".5"/><circle fill="#263238" cx="8.5" cy="20.5" r=".5"/><circle fill="#263238" cx="14.5" cy="18.5" r=".5"/><circle fill="#263238" cx="12.5" cy="18.5" r=".5"/><circle fill="#263238" cx="10.5" cy="18.5" r=".5"/><circle fill="#263238" cx="8.5" cy="18.5" r=".5"/><path fill="#263238" d="M6.5 31h-3a.5.5 0 0 1-.5-.5v-5a.5.5 0 0 1 1 0V30h2v-6H3.5a.5.5 0 0 1 0-1h3a.5.5 0 0 1 .5.5v7a.5.5 0 0 1-.5.5zm19-2h-5a.5.5 0 0 1 0-1h5a.5.5 0 0 1 0 1zm0-2h-5a.5.5 0 0 1 0-1h5a.5.5 0 0 1 0 1zm0-2h-5a.5.5 0 0 1 0-1h5a.5.5 0 0 1 0 1zm0-2h-5a.5.5 0 0 1 0-1h5a.5.5 0 0 1 0 1zm0-2h-5a.5.5 0 0 1 0-1h5a.5.5 0 0 1 0 1zm0-2h-7a.5.5 0 0 1 0-1h7a.5.5 0 0 1 0 1zm0-2h-7a.5.5 0 0 1 0-1h7a.5.5 0 0 1 0 1zm0-2h-7a.5.5 0 0 1 0-1h7a.5.5 0 0 1 0 1zm0-2h-7a.5.5 0 0 1 0-1h7a.5.5 0 0 1 0 1z"/><path fill="#263238" d="M25.5 23a.5.5 0 0 1-.5-.5V11h-8a.5.5 0 0 1 0-1h8.5a.5.5 0 0 1 .5.5v12a.5.5 0 0 1-.5.5z"/><path fill="#263238" d="M25.5 31H17a.5.5 0 0 1 0-1h8v-7.5a.5.5 0 0 1 1 0v8a.5.5 0 0 1-.5.5z"/><path fill="#263238" d="M14.5 30H7V16h9v4.5h1v-5a.5.5 0 0 0-.5-.5h-10a.5.5 0 0 0-.5.5v15a.5.5 0 0 0 .5.5h10a.5.5 0 0 0 .5-.5h-2.5V30z"/><path fill="#263238" d="M18.5 31h-4a.5.5 0 0 1-.5-.5v-10a.5.5 0 0 1 .5-.5h4a.5.5 0 0 1 0 1H15v9h3v-7.501a.5.5 0 0 1 1 0V30.5a.5.5 0 0 1-.5.5zm2-22a.5.5 0 0 1-.5-.5v-2a.5.5 0 0 1 1 0v2a.5.5 0 0 1-.5.5zm2 0a.5.5 0 0 1-.5-.5v-3a.5.5 0 0 1 1 0v3a.5.5 0 0 1-.5.5z"/><path fill="#263238" d="M24.5 11h-6a.5.5 0 0 1 0-1H24V9h-5.5a.5.5 0 0 1 0-1h6a.5.5 0 0 1 .5.5v2a.5.5 0 0 1-.5.5zm6 20h-29a.5.5 0 0 1 0-1h29a.5.5 0 0 1 0 1z"/><g fill="#263238"><path d="M18.569 4.931a.502.502 0 0 1-.354-.146C16.42 2.988 14.035 2 11.5 2s-4.92.988-6.716 2.784a.5.5 0 0 1-.707-.707c4.094-4.093 10.752-4.093 14.846 0a.5.5 0 0 1-.354.854z"/><path d="M16.802 6.698a.502.502 0 0 1-.354-.146c-2.729-2.729-7.168-2.729-9.896 0a.5.5 0 0 1-.707-.707c3.119-3.118 8.191-3.118 11.311 0a.5.5 0 0 1-.354.853z"/><path d="M15.035 8.465a.502.502 0 0 1-.354-.146 4.507 4.507 0 0 0-6.363 0 .5.5 0 0 1-.707-.707 5.506 5.506 0 0 1 7.777 0 .5.5 0 0 1-.353.853z"/><path d="M13.268 10.232a.502.502 0 0 1-.354-.146 2.003 2.003 0 0 0-2.828 0 .5.5 0 0 1-.707-.707 3.002 3.002 0 0 1 4.242 0 .5.5 0 0 1-.353.853z"/><circle cx="11.5" cy="11.5" r=".5"/></g><path fill="#263238" d="M15.5 16h-8a.5.5 0 0 1-.5-.5v-2a.5.5 0 0 1 .5-.5h8a.5.5 0 0 1 .5.5v2a.5.5 0 0 1-.5.5zM8 15h7v-1H8v1z"/><circle fill="#263238" cx="28.5" cy="19.5" r=".5"/><circle fill="#263238" cx="28.5" cy="17.5" r=".5"/><circle fill="#263238" cx="28.5" cy="15.5" r=".5"/><circle fill="#263238" cx="3.5" cy="19.5" r=".5"/><circle fill="#263238" cx="3.5" cy="17.5" r=".5"/><circle fill="#263238" cx="3.5" cy="15.5" r=".5"/></svg>