<svg xmlns="http://www.w3.org/2000/svg" width="32" height="32" xml:space="preserve"><path fill="#263238" d="M14.5 28.5a15.024 15.024 0 0 1-12.331-6.454.5.5 0 0 1 .822-.571 14.017 14.017 0 0 0 12.516 5.989.514.514 0 0 1 .534.463.5.5 0 0 1-.464.534c-.356.026-.715.039-1.077.039zM29 14a.5.5 0 0 1-.5-.5 13.88 13.88 0 0 0-4.325-10.12.5.5 0 0 1 .691-.723A14.871 14.871 0 0 1 29.5 13.5a.5.5 0 0 1-.5.5zM5.761 22.205a.5.5 0 0 1-.14-.98 32.075 32.075 0 0 1 9.895-1.262.5.5 0 0 1-.03 1 30.838 30.838 0 0 0-9.584 1.222.495.495 0 0 1-.141.02zM14.5 7.053a31.58 31.58 0 0 1-6.194-.615.499.499 0 0 1-.392-.588.503.503 0 0 1 .589-.392c4.82.966 9.862.747 14.596-.643a.5.5 0 1 1 .281.96 31.523 31.523 0 0 1-8.88 1.278z"/><path fill="#263238" d="M21.447 14a.5.5 0 0 1-.5-.5c0-4.606-2.3-8.928-6.153-11.559a.5.5 0 0 1 .564-.826c4.126 2.818 6.589 7.447 6.589 12.385a.5.5 0 0 1-.5.5zm-7.523 11.972a.498.498 0 0 1-.282-.087C9.516 23.067 7.053 18.438 7.053 13.5c0-3.562 1.284-7.015 3.615-9.725a.5.5 0 0 1 .758.652 13.92 13.92 0 0 0-3.373 9.072c0 4.606 2.3 8.928 6.153 11.559a.5.5 0 0 1-.282.914z"/><path fill="#263238" d="M14.5 25.368a.5.5 0 0 1-.5-.5V2.132a.5.5 0 0 1 1 0v22.736a.5.5 0 0 1-.5.5z"/><path fill="#263238" d="M19.368 14H4.346a.5.5 0 0 1 0-1h15.022a.5.5 0 0 1 0 1z"/><path fill="#263238" d="M14.5 26C7.607 26 2 20.393 2 13.5c0-3.514 1.491-6.885 4.091-9.25a.5.5 0 0 1 .674.74A11.526 11.526 0 0 0 3 13.5C3 19.841 8.159 25 14.5 25c.322 0 .641-.013.957-.039.298-.012.518.183.539.458a.5.5 0 0 1-.457.539c-.344.028-.689.042-1.039.042zm12-12a.5.5 0 0 1-.5-.5C26 7.159 20.841 2 14.5 2c-2.015 0-3.996.528-5.731 1.528a.501.501 0 0 1-.5-.866A12.5 12.5 0 0 1 14.5 1C21.393 1 27 6.607 27 13.5a.5.5 0 0 1-.5.5zm-2.999 17a.498.498 0 0 1-.277-.084l-3.505-2.336C18.194 27.564 17 25.333 17 23.5V17a.5.5 0 0 1 .342-.474l6-2a.502.502 0 0 1 .316 0l4.492 1.498a.5.5 0 1 1-.317.948L23.5 15.527 18 17.36v6.14c0 1.481 1.041 3.427 2.273 4.248l3.228 2.151 3.226-2.151C27.959 26.927 29 24.981 29 23.5v-2a.5.5 0 0 1 1 0v2c0 1.833-1.194 4.064-2.719 5.08l-3.503 2.336a.498.498 0 0 1-.277.084z"/><path fill="#263238" d="M23.5 25.199h-.012a.503.503 0 0 1-.373-.18l-2.5-3a.503.503 0 0 1 .064-.705.503.503 0 0 1 .705.064l2.133 2.561 6.215-6.865a.5.5 0 0 1 .736.676l-6.6 7.287a.495.495 0 0 1-.368.162z"/><circle fill="#263238" cx="1.5" cy="20" r=".5"/><circle fill="#263238" cx="22.5" cy="1.5" r=".5"/></svg>