<svg xmlns="http://www.w3.org/2000/svg" width="32" height="32" xml:space="preserve"><g fill="#263238"><path d="M6.674 20.2a.501.501 0 0 1-.381-.825l.248-.291c2.065-2.067 5.139-2.525 7.676-1.163a.5.5 0 1 1-.473.881 5.453 5.453 0 0 0-6.469.96l-.221.262a.499.499 0 0 1-.38.176z"/><path d="M21.403 22h-7.395a.5.5 0 0 1 0-1h6.861a2.331 2.331 0 0 0-.329-.918C20.08 19.364 19.184 19 17.876 19H14.14a.5.5 0 0 1 0-1h3.737c1.67 0 2.85.519 3.506 1.542.521.812.521 1.675.521 1.958a.501.501 0 0 1-.501.5z"/></g><g fill="#263238"><path d="M29.066 18.249c-.972-.532-2.37-.419-3.961.326l-2.779 1.443-1.153.208c.151.369.205.722.222.976l1.184-.214a.507.507 0 0 0 .142-.048l2.828-1.469c1.257-.588 2.364-.714 3.038-.346.37.203.618.558.742 1.058l-5.186 3.056-5.343 1.503a6.911 6.911 0 0 1-1.87.258h-4.948c-.662 0-1.488.296-1.998.711l-.715.336c-.021.009-.033.026-.052.038l.742.743.509-.239a.494.494 0 0 0 .116-.076c.318-.278.958-.513 1.397-.513h4.948c.724 0 1.444-.1 2.142-.295l5.405-1.521a.514.514 0 0 0 .118-.051l5.542-3.266a.5.5 0 0 0 .242-.496c-.163-1.25-.803-1.844-1.312-2.122z"/><path d="M8.217 30.854a.501.501 0 0 1-.707 0 .501.501 0 0 1 0-.707l2.882-2.887-5.657-5.657-2.881 2.886a.5.5 0 0 1-.707-.707l3.187-3.191c.195-.195.575-.229.771-.033l6.364 6.364c.195.195.133.544-.063.739l-3.189 3.193z"/></g><path fill="#263238" d="M17.578 29h-1.097a.5.5 0 0 1 0-1h1.097a17.82 17.82 0 0 0 11.091-3.891.5.5 0 0 1 .625.781A18.822 18.822 0 0 1 17.578 29z"/><circle fill="#263238" cx="14.481" cy="28.5" r=".5"/><path fill="#263238" d="M19 17.002a7.932 7.932 0 0 1-5.771-2.468.5.5 0 0 1-.115-.499c.244-.762.84-1.368 1.557-1.583l2.632-1.136a.503.503 0 0 1 .438.021l.535.294a1.522 1.522 0 0 0 1.447 0l.536-.296a.496.496 0 0 1 .438-.021l2.746 1.18c.617.177 1.206.791 1.443 1.543a.498.498 0 0 1-.116.497A7.932 7.932 0 0 1 19 17.002zm-4.816-2.929A6.926 6.926 0 0 0 19 16.002c1.812 0 3.51-.683 4.819-1.931-.169-.31-.438-.557-.714-.638l-2.578-1.104-.322.178a2.541 2.541 0 0 1-2.411 0l-.32-.176-2.462 1.059c-.353.109-.65.364-.828.683z"/><path fill="#263238" d="M12.253 12.75a.497.497 0 0 1-.45-.283A7.915 7.915 0 0 1 11 9c0-4.411 3.589-8 8-8s8 3.589 8 8a7.952 7.952 0 0 1-.787 3.467.5.5 0 1 1-.902-.434A6.94 6.94 0 0 0 26 9c0-3.859-3.141-7-7-7s-7 3.141-7 7c0 1.046.236 2.066.703 3.033a.5.5 0 0 1-.45.717z"/><path fill="#263238" d="M20.5 12.29a.5.5 0 0 1-.5-.5v-.8c0-.157.073-.304.198-.398.51-.386.802-.966.802-1.591v-1c0-1.55-.097-2.5-2-2.5s-2 .95-2 2.5v1c0 .625.292 1.205.802 1.591a.497.497 0 0 1 .198.398v.8a.5.5 0 0 1-1 0v-.564a2.966 2.966 0 0 1-1-2.225v-1c0-1.309 0-3.5 3-3.5s3 2.191 3 3.5v1c0 .856-.361 1.653-1 2.225v.564a.5.5 0 0 1-.5.5z"/></svg>