<svg xmlns="http://www.w3.org/2000/svg" width="32" height="32" xml:space="preserve"><g fill="#263238"><path d="M16 31a.5.5 0 0 1-.456-.296l-8.5-19A.5.5 0 0 1 7.5 11h17a.502.502 0 0 1 .456.704l-8.5 19A.5.5 0 0 1 16 31zM8.271 12 16 29.275 23.729 12H8.271z"/><path d="M24.5 12h-17a.5.5 0 0 1-.363-.843l8.5-9c.188-.2.539-.2.727 0l8.5 9A.498.498 0 0 1 24.5 12zM8.66 11h14.68L16 3.228 8.66 11z"/><path d="M24.499 12a.5.5 0 0 1-.496-.445l-1-9a.5.5 0 0 1 .883-.373l7 8.5a.501.501 0 0 1-.344.816l-6 .5c-.015.002-.028.002-.043.002zm-.316-7.885.761 6.846 4.563-.38-5.324-6.466z"/><path d="M24.5 12a.495.495 0 0 1-.363-.157l-8.5-9A.498.498 0 0 1 16 2h7.5a.5.5 0 0 1 .497.445l.984 8.863c.025.06.038.125.038.192 0 .279-.187.498-.509.5h-.01zm-7.34-9 6.678 7.071L23.053 3H17.16z"/><path d="M7.5 12a.5.5 0 0 1-.497-.555l1-9A.5.5 0 0 1 8.5 2H16a.5.5 0 0 1 .363.843l-8.5 9A.495.495 0 0 1 7.5 12zm1.447-9-.785 7.071L14.84 3H8.947z"/><path d="M7.501 12c-.015 0-.028 0-.043-.002l-6-.5a.498.498 0 0 1-.344-.816l1.235-1.5a.5.5 0 1 1 .771.636l-.629.764 4.564.38.761-6.846-3.05 3.703a.5.5 0 1 1-.77-.637l4.118-5a.5.5 0 0 1 .883.373l-1 9a.5.5 0 0 1-.496.445z"/><path d="M16 31a.5.5 0 0 1-.401-.202l-14.5-19.5a.501.501 0 0 1 .443-.796l6 .5c.181.015.34.127.414.294l8.5 19A.5.5 0 0 1 16 31zM2.562 11.59l11.122 14.957-6.52-14.574-4.602-.383z"/><path d="M16 31a.5.5 0 0 1-.456-.704l8.5-19a.497.497 0 0 1 .414-.294l6-.5a.501.501 0 0 1 .443.796l-14.5 19.5A.5.5 0 0 1 16 31zm8.836-19.026-6.52 14.574L29.438 11.59l-4.602.384z"/></g></svg>