<svg xmlns="http://www.w3.org/2000/svg" width="32" height="32" xml:space="preserve"><path fill="#263238" d="M15.5 29h-4.613a.82.82 0 0 1-.735-.466.774.774 0 0 1 .092-.827A1.14 1.14 0 0 0 10.5 27a1.001 1.001 0 0 0-2 0c0 .25.091.501.257.707a.776.776 0 0 1 .092.827.823.823 0 0 1-.736.466H3.5a.5.5 0 0 1-.5-.5v-4.613c0-.312.184-.6.467-.736a.774.774 0 0 1 .827.092c.205.166.456.257.706.257a1.001 1.001 0 0 0 0-2c-.25 0-.501.091-.705.256a.774.774 0 0 1-.828.092.821.821 0 0 1-.467-.735V18.5a.5.5 0 0 1 1 0v2.256a2.107 2.107 0 0 1 1-.256c1.103 0 2 .897 2 2s-.897 2-2 2c-.347 0-.691-.089-1-.256V28h3.756a2.118 2.118 0 0 1-.256-1c0-1.103.897-2 2-2s2 .897 2 2c0 .347-.089.691-.256 1H15v-3a.5.5 0 0 1 1 0v3.5a.5.5 0 0 1-.5.5zm12 0h-4.613a.82.82 0 0 1-.735-.466.774.774 0 0 1 .092-.827A1.14 1.14 0 0 0 22.5 27a1.001 1.001 0 0 0-2 0c0 .25.091.501.257.707a.776.776 0 0 1 .092.827.823.823 0 0 1-.736.466H17.5a.5.5 0 0 1 0-1h2.256a2.118 2.118 0 0 1-.256-1c0-1.103.897-2 2-2s2 .897 2 2c0 .347-.089.691-.256 1H27v-4.113c0-.312.184-.6.467-.736a.774.774 0 0 1 .827.092c.205.166.456.257.706.257a1.001 1.001 0 0 0 0-2c-.25 0-.501.091-.705.256a.774.774 0 0 1-.828.092.821.821 0 0 1-.467-.735V17h-3a.5.5 0 0 1 0-1h3.5a.5.5 0 0 1 .5.5v4.256a2.107 2.107 0 0 1 1-.256c1.103 0 2 .897 2 2s-.897 2-2 2c-.347 0-.691-.089-1-.256V28.5a.5.5 0 0 1-.5.5zM7 17H3.5a.5.5 0 0 1-.5-.5v-4.613c0-.312.184-.6.467-.736a.772.772 0 0 1 .827.092c.205.166.456.257.706.257a1.001 1.001 0 0 0 0-2c-.25 0-.501.091-.705.256a.775.775 0 0 1-.828.093A.824.824 0 0 1 3 9.113V4.5a.5.5 0 0 1 .5-.5h4.256A2.118 2.118 0 0 1 7.5 3c0-1.103.897-2 2-2s2 .897 2 2c0 .347-.089.691-.256 1H13.5a.5.5 0 0 1 0 1h-2.613a.82.82 0 0 1-.735-.466.774.774 0 0 1 .092-.827A1.14 1.14 0 0 0 10.5 3a1.001 1.001 0 0 0-2 0c0 .25.091.501.257.707a.778.778 0 0 1 .092.827.823.823 0 0 1-.736.466H4v3.756A2.107 2.107 0 0 1 5 8.5c1.103 0 2 .897 2 2s-.897 2-2 2c-.347 0-.691-.089-1-.256V16h3a.5.5 0 0 1 0 1zm20.5-2a.5.5 0 0 1-.5-.5v-2.613c0-.312.184-.6.467-.736a.772.772 0 0 1 .827.092c.205.166.456.257.706.257a1.001 1.001 0 0 0 0-2c-.25 0-.501.091-.705.256a.774.774 0 0 1-.828.092.821.821 0 0 1-.467-.735V5h-4.113a.82.82 0 0 1-.735-.466.774.774 0 0 1 .092-.827A1.14 1.14 0 0 0 22.5 3a1.001 1.001 0 0 0-2 0c0 .25.091.501.257.707a.776.776 0 0 1 .092.827.823.823 0 0 1-.736.466H16v3a.5.5 0 0 1-1 0V4.5a.5.5 0 0 1 .5-.5h4.256a2.118 2.118 0 0 1-.256-1c0-1.103.897-2 2-2s2 .897 2 2c0 .347-.089.691-.256 1H27.5a.5.5 0 0 1 .5.5v4.256a2.107 2.107 0 0 1 1-.256c1.103 0 2 .897 2 2s-.897 2-2 2c-.347 0-.691-.089-1-.256V14.5a.5.5 0 0 1-.5.5z"/><path fill="#263238" d="M15 19a.502.502 0 0 1-.354-.146l-3-3a.5.5 0 0 1 .707-.707L15 17.793l6.146-6.146a.5.5 0 0 1 .707.707l-6.5 6.5A.498.498 0 0 1 15 19z"/><path fill="#263238" d="M15.5 23.5c-3.859 0-7-3.14-7-7s3.141-7 7-7c1.456 0 2.852.443 4.037 1.281a.5.5 0 0 1-.578.817A5.95 5.95 0 0 0 15.5 10.5c-3.309 0-6 2.691-6 6s2.691 6 6 6a6.006 6.006 0 0 0 5.762-7.678.5.5 0 0 1 .961-.28c.184.633.277 1.292.277 1.958 0 3.86-3.141 7-7 7z"/></svg>