<svg xmlns="http://www.w3.org/2000/svg" width="32" height="32" xml:space="preserve"><path fill="#263238" d="M26.5 31a.5.5 0 0 1-.5-.5V30H6v.5a.5.5 0 0 1-1 0v-1a.5.5 0 0 1 .5-.5h21a.5.5 0 0 1 .5.5v1a.5.5 0 0 1-.5.5z"/><path fill="#263238" d="M26.5 30h-1a.5.5 0 0 1 0-1h1c.827 0 1.5-.673 1.5-1.5v-6.35c0-.192.111-.368.284-.451A2.974 2.974 0 0 0 30 18c0-1.654-1.346-3-3-3s-3 1.346-3 3v1.5a.5.5 0 0 1-1 0V18c0-2.206 1.794-4 4-4s4 1.794 4 4a3.959 3.959 0 0 1-2 3.452V27.5c0 1.379-1.122 2.5-2.5 2.5z"/><path fill="#263238" d="M26.5 30h-21a.5.5 0 0 1 0-1h21a.5.5 0 0 1 0 1zm0-15a.5.5 0 0 1-.5-.5v-6C26 5.468 23.533 3 20.5 3h-9c-.937 0-1.861.239-2.673.692a.5.5 0 0 1-.488-.873A6.503 6.503 0 0 1 11.5 2h9C24.084 2 27 4.916 27 8.5v6a.5.5 0 0 1-.5.5zm-21 .039a.5.5 0 0 1-.5-.5V8.5c0-.922.189-1.813.562-2.647a.5.5 0 1 1 .913.408A5.455 5.455 0 0 0 6 8.5v6.039a.5.5 0 0 1-.5.5z"/><path fill="#263238" d="M6.5 30h-1A2.503 2.503 0 0 1 3 27.5v-6.048A3.959 3.959 0 0 1 1 18c0-2.206 1.794-4 4-4s4 1.794 4 4v1.5a.5.5 0 0 1-1 0V18c0-1.654-1.346-3-3-3s-3 1.346-3 3c0 1.159.657 2.193 1.716 2.699A.501.501 0 0 1 4 21.15v6.35c0 .827.673 1.5 1.5 1.5h1a.5.5 0 0 1 0 1z"/><path fill="#263238" d="M25.549 22.773a.508.508 0 0 1-.213-.048C23.018 21.629 19.615 21 16 21c-3.607 0-7.005.627-9.322 1.719a.5.5 0 1 1-.427-.904C8.697 20.661 12.25 20 16 20c3.758 0 7.317.664 9.763 1.821a.5.5 0 0 1-.214.952z"/><circle fill="#263238" cx="12.5" cy="9.5" r=".5"/><circle fill="#263238" cx="19.5" cy="9.5" r=".5"/><circle fill="#263238" cx="12.5" cy="16.5" r=".5"/><circle fill="#263238" cx="19.5" cy="16.5" r=".5"/><path fill="#263238" d="M27 20c-1.103 0-2-.897-2-2s.897-2 2-2 2 .897 2 2a.5.5 0 0 1-1 0 1.001 1.001 0 0 0-2 0c0 .552.449 1 1 1a.5.5 0 0 1 0 1zM5 20c-1.103 0-2-.897-2-2s.897-2 2-2 2 .897 2 2a.5.5 0 0 1-1 0 1.001 1.001 0 0 0-2 0c0 .552.449 1 1 1a.5.5 0 0 1 0 1z"/><circle fill="#263238" cx="7" cy="4.5" r=".5"/></svg>