<svg xmlns="http://www.w3.org/2000/svg" width="32" height="32" xml:space="preserve"><path fill="#263238" d="M20.5 9c-1.654 0-3-1.346-3-3s1.346-3 3-3 3 1.346 3 3-1.346 3-3 3zm0-5a2 2 0 1 0 .001 3.999A2 2 0 0 0 20.5 4zM19 17h-.695a.5.5 0 0 1 0-1H19a.5.5 0 0 1 0 1zm8.5 2h-7a.496.496 0 0 1-.405-.208.496.496 0 0 1-.069-.45l2-6A.5.5 0 0 1 22.5 12h7c.161 0 .312.077.405.208.095.13.12.298.069.45l-2 6A.5.5 0 0 1 27.5 19zm-6.307-1h5.946l1.667-5H22.86l-1.667 5zM8.5 9c-1.654 0-3-1.346-3-3s1.346-3 3-3 3 1.346 3 3-1.346 3-3 3zm0-5a2 2 0 1 0 .001 3.999A2 2 0 0 0 8.5 4zM3.299 19c-.783 0-1.49-.402-1.891-1.075a2.185 2.185 0 0 1-.042-2.176l2.328-4.416A2.5 2.5 0 0 1 5.906 10H11c.475 0 .947.113 1.366.328a.502.502 0 0 1 .217.674.504.504 0 0 1-.674.217A1.957 1.957 0 0 0 11 11H5.906c-.558 0-1.066.307-1.327.8l-2.331 4.421c-.207.382-.199.825.02 1.192S2.872 18 3.299 18a.5.5 0 0 1 0 1z"/><path fill="#263238" d="M7 17H3.805a.499.499 0 0 1-.439-.739l1.621-2.972a.5.5 0 1 1 .877.479L4.647 16H7a.5.5 0 0 1 0 1zm9.21-4.5.369-.7a1.503 1.503 0 0 1 1.327-.8H23c.321 0 .627.073.909.219a.502.502 0 0 0 .457-.891A3.003 3.003 0 0 0 23 10h-5.094a2.508 2.508 0 0 0-2.212 1.333l-.615 1.167h1.131z"/><path fill="#263238" d="M15.5 19h-7a.496.496 0 0 1-.405-.208.496.496 0 0 1-.069-.45l2-6A.5.5 0 0 1 10.5 12h7c.161 0 .312.077.405.208.095.13.12.298.069.45l-2 6A.5.5 0 0 1 15.5 19zm-6.307-1h5.946l1.667-5H10.86l-1.667 5zM28.5 31h-27a.5.5 0 0 1 0-1H28v-9H1.5a.5.5 0 0 1 0-1h27a.5.5 0 0 1 .5.5v10a.5.5 0 0 1-.5.5z"/><path fill="#263238" d="M30.5 19h-27a.5.5 0 0 1 0-1h27a.5.5 0 0 1 0 1z"/><circle fill="#263238" cx="25.5" cy="14.5" r=".5"/><circle fill="#263238" cx="13.5" cy="14.5" r=".5"/></svg>