<svg xmlns="http://www.w3.org/2000/svg" width="32" height="32" xml:space="preserve"><path fill="#263238" d="M24.5 27h-2a.5.5 0 0 1 0-1h2a.5.5 0 0 1 0 1zm0-2h-4a.5.5 0 0 1 0-1H24v-1.032a3.47 3.47 0 0 1 1.546-2.895A5.484 5.484 0 0 0 28 15.5a5.478 5.478 0 0 0-2.035-4.271c-1.292-1.049-2.986-1.45-4.657-1.104-2.091.437-3.776 2.141-4.194 4.239-.445 2.237.435 4.413 2.297 5.679a3.661 3.661 0 0 1 1.415 1.847.5.5 0 0 1-.949.316 2.646 2.646 0 0 0-1.028-1.336c-2.167-1.474-3.232-4.104-2.715-6.702.495-2.487 2.492-4.505 4.97-5.022 1.96-.411 3.965.065 5.493 1.306S29 13.534 29 15.5a6.483 6.483 0 0 1-2.899 5.405A2.47 2.47 0 0 0 25 22.968V24.5a.5.5 0 0 1-.5.5z"/><path fill="#263238" d="M23.5 29h-2c-.827 0-1.5-.673-1.5-1.5v-1a.5.5 0 0 1 1 0v1a.5.5 0 0 0 .5.5h2a.5.5 0 0 0 .5-.5v-3a.5.5 0 0 1 1 0v3c0 .827-.673 1.5-1.5 1.5z"/><path fill="#263238" d="M22.5 25a.5.5 0 0 1-.5-.5v-4c0-.078.019-.154.053-.224L23.691 17H21a.5.5 0 0 1 0-1h2.691c.349 0 .667.177.851.474.184.297.2.661.044.973L23 20.618V24.5a.5.5 0 0 1-.5.5zM12 30.5V10.806c0-.212.135-.402.335-.472l3.547-1.239A3.164 3.164 0 0 0 18 6.112V2.5a.5.5 0 0 0-1 0v3.56c0 .957-.615 1.788-1.53 2.068l-2.788.851a.51.51 0 0 1-.146.021H7.355c-.717 0-1.402.309-1.876.847l-1.381 1.567a3.505 3.505 0 0 0 .33 4.938l1.742 1.524a.491.491 0 0 0 .329.124.502.502 0 0 1 .493.583L5 30.563a.5.5 0 0 1-.986-.166l1.914-11.51a1.49 1.49 0 0 1-.415-.257L3.77 17.104a4.506 4.506 0 0 1-.423-6.35l1.382-1.568A3.503 3.503 0 0 1 7.355 8h5.106l2.716-.829c.492-.15.823-.597.823-1.111V2.5c0-.827.673-1.5 1.5-1.5s1.5.673 1.5 1.5v3.612a4.162 4.162 0 0 1-2.788 3.927L13 11.161V30.5a.5.5 0 0 1-1 0z"/><path fill="#263238" d="M6.5 16.671a.498.498 0 0 1-.329-.124l-1.084-.949a2.486 2.486 0 0 1-.849-1.715 2.48 2.48 0 0 1 .613-1.813l1.097-1.253A.6.6 0 0 1 7 11.213V13.5a.5.5 0 0 1-1 0v-1.223l-.396.453a1.484 1.484 0 0 0-.367 1.087c.026.4.207.765.509 1.029l1.084.949a.5.5 0 0 1-.33.876z"/><path fill="#263238" d="M6.499 19c-.362 0-.713-.132-.986-.371L3.77 17.104a.5.5 0 0 1 .658-.753l1.742 1.524c.317.278.556.126.706-.046a.499.499 0 0 0-.047-.706L5.087 15.6a.5.5 0 0 1 .658-.753l1.742 1.524c.302.264.483.629.509 1.029A1.5 1.5 0 0 1 6.499 19zM6.5 31a.5.5 0 0 1-.483-.626l3-11.5a.5.5 0 0 1 .981.083l1 11.5a.5.5 0 0 1-.996.087l-.749-8.615-2.27 8.697A.498.498 0 0 1 6.5 31zM10 7C8.346 7 7 5.654 7 4s1.346-3 3-3 3 1.346 3 3-1.346 3-3 3zm0-5a2 2 0 1 0 .001 4.001A2 2 0 0 0 10 2zm6.5 29h-4a.5.5 0 0 1 0-1h4a.5.5 0 0 1 0 1z"/><circle fill="#263238" cx="18.5" cy="30.5" r=".5"/><path fill="#263238" d="M30.434 12.942c-.2 0-.39-.122-.467-.32a7.98 7.98 0 0 0-2.934-3.715.5.5 0 0 1 .568-.823 8.983 8.983 0 0 1 3.299 4.178.5.5 0 0 1-.466.68z"/><circle fill="#263238" cx="25.5" cy="7.5" r=".5"/></svg>