<svg xmlns="http://www.w3.org/2000/svg" width="32" height="32" xml:space="preserve"><g fill="#263238"><path d="M29.5 31h-27a.5.5 0 0 1-.5-.5v-8a.5.5 0 0 1 .5-.5h8a.5.5 0 0 1 0 1H3v7h26v-7h-7.5a.5.5 0 0 1 0-1h8a.5.5 0 0 1 .5.5v8a.5.5 0 0 1-.5.5z"/><path d="M27 28.5a.5.5 0 1 1-1 0 .5.5 0 0 1 1 0zm-2 0a.5.5 0 1 1-1 0 .5.5 0 0 1 1 0zm-14 0a.5.5 0 1 1-1 0 .5.5 0 0 1 1 0zm-2 0a.5.5 0 1 1-1 0 .5.5 0 0 1 1 0zm12 0a.5.5 0 1 1-1 0 .5.5 0 0 1 1 0zm2 0a.5.5 0 1 1-1 0 .5.5 0 0 1 1 0zm-18 0a.5.5 0 1 1-1 0 .5.5 0 0 1 1 0zm2 0a.5.5 0 1 1-1 0 .5.5 0 0 1 1 0zm19-2a.5.5 0 1 1-1 0 .5.5 0 0 1 1 0zm-2 0a.5.5 0 1 1-1 0 .5.5 0 0 1 1 0zm-2 0a.5.5 0 1 1-1 0 .5.5 0 0 1 1 0zm-2 0a.5.5 0 1 1-1 0 .5.5 0 0 1 1 0zm-2 0a.5.5 0 1 1-1 0 .5.5 0 0 1 1 0zm-2 0a.5.5 0 1 1-1 0 .5.5 0 0 1 1 0zm-2 0a.5.5 0 1 1-1 0 .5.5 0 0 1 1 0zm-2 0a.5.5 0 1 1-1 0 .5.5 0 0 1 1 0zm-2 0a.5.5 0 1 1-1 0 .5.5 0 0 1 1 0zm-2 0a.5.5 0 1 1-1 0 .5.5 0 0 1 1 0zm-2 0a.5.5 0 1 1-1 0 .5.5 0 0 1 1 0zm19-2a.5.5 0 1 1-1 0 .5.5 0 0 1 1 0zm-2 0a.5.5 0 1 1-1 0 .5.5 0 0 1 1 0zm-2 0a.5.5 0 1 1-1 0 .5.5 0 0 1 1 0zm-2 0a.5.5 0 1 1-1 0 .5.5 0 0 1 1 0zm-2 0a.5.5 0 1 1-1 0 .5.5 0 0 1 1 0zm-2 0a.5.5 0 1 1-1 0 .5.5 0 0 1 1 0zm-2 0a.5.5 0 1 1-1 0 .5.5 0 0 1 1 0zm-2 0a.5.5 0 1 1-1 0 .5.5 0 0 1 1 0zm-2 0a.5.5 0 1 1-1 0 .5.5 0 0 1 1 0zm-2 0a.5.5 0 1 1-1 0 .5.5 0 0 1 1 0zm-2 0a.5.5 0 1 1-1 0 .5.5 0 0 1 1 0zm21.5 0h1-1zm1 .5h-1a.5.5 0 0 1 0-1h1a.5.5 0 0 1 0 1zm-15 3.5h6-6zm6 .5h-6a.5.5 0 0 1 0-1h6a.5.5 0 0 1 0 1zM16 23a.522.522 0 0 1-.141-.02c-.07-.021-1.735-.516-3.615-1.636a.501.501 0 0 1 .512-.86A17.055 17.055 0 0 0 16 21.975a17.15 17.15 0 0 0 3.245-1.491.5.5 0 0 1 .512.86c-1.881 1.12-3.546 1.615-3.616 1.636A.522.522 0 0 1 16 23zm8.724-21.947a.502.502 0 0 0-.524.047l-4 3a.5.5 0 0 0-.2.4v.402a2.55 2.55 0 0 1 1-.196c.019 0 .034.005.052.005L24 2.5V3c0 .266-.07.526-.203.753a.5.5 0 1 0 .862.506C24.882 3.879 25 3.444 25 3V1.5a.5.5 0 0 0-.276-.447zM8 3v-.5l2.894 2.17c.153-.027.311-.048.481-.048.226 0 .431.03.625.075V4.5a.5.5 0 0 0-.2-.4l-4-3a.5.5 0 0 0-.8.4V3c0 .444.118.879.34 1.259a.5.5 0 1 0 .862-.506A1.498 1.498 0 0 1 8 3z"/><path d="M20.5 11C18.57 11 17 9.43 17 7.5c0-1.926 2.958-3.305 3.296-3.457L20.5 4C22.43 4 24 5.57 24 7.5S22.43 11 20.5 11zm.105-5.998C19.832 5.371 18 6.463 18 7.5c0 1.378 1.122 2.5 2.5 2.5S23 8.878 23 7.5a2.504 2.504 0 0 0-2.395-2.498z"/><path d="M18.5 2h-5a4.471 4.471 0 0 0-3.331 1.502l.797.598A3.48 3.48 0 0 1 13.5 3h5a3.48 3.48 0 0 1 2.534 1.1l.797-.598A4.471 4.471 0 0 0 18.5 2zM7 10.5v3a.5.5 0 0 0 1 0v-3c0-.686.289-1.321.764-1.78a3.007 3.007 0 0 1-.25-1.084A3.484 3.484 0 0 0 7 10.5zm16.486-2.864c-.018.384-.102.75-.25 1.083A2.48 2.48 0 0 1 24 10.5v3a.5.5 0 0 0 1 0v-3a3.485 3.485 0 0 0-1.514-2.864z"/><path d="M11.5 11C9.57 11 8 9.43 8 7.5S9.57 4 11.5 4l.204.043C12.042 4.195 15 5.574 15 7.5c0 1.93-1.57 3.5-3.5 3.5zm-.105-5.998A2.504 2.504 0 0 0 9 7.5c0 1.378 1.122 2.5 2.5 2.5S14 8.878 14 7.5c0-1.041-1.832-2.13-2.605-2.498zM19.5 23a.5.5 0 0 1-.5-.5V21a.5.5 0 0 1 1 0v1.5a.5.5 0 0 1-.5.5zm-7 0a.5.5 0 0 1-.5-.5V21a.5.5 0 0 1 1 0v1.5a.5.5 0 0 1-.5.5zm8-16.5c-.099 0-.189.03-.28.057a.496.496 0 1 1-.663.663c-.028.091-.057.181-.057.28a1 1 0 1 0 1-1z"/><path d="M11.5 6.5c-.099 0-.189.03-.28.057a.496.496 0 1 1-.663.663c-.028.091-.057.181-.057.28a1 1 0 1 0 1-1zM16 11a.5.5 0 0 1-.453-.288l-1.5-3.2a.5.5 0 0 1 .905-.425L16 9.322l1.047-2.234a.5.5 0 0 1 .905.425l-1.5 3.2A.498.498 0 0 1 16 11zm-5.5 9.969a.503.503 0 0 1-.328-.122C8.067 19.022 7 16.887 7 14.5v-3a.5.5 0 0 1 1 0v3c0 1.751.672 3.36 2 4.793V14.5c0-.711-.304-1.39-.833-1.863a.5.5 0 1 1 .666-.746A3.502 3.502 0 0 1 11 14.5v5.969a.5.5 0 0 1-.5.5zm11 0a.5.5 0 0 1-.5-.5V14.5c0-.995.425-1.946 1.167-2.609a.5.5 0 1 1 .666.746A2.502 2.502 0 0 0 22 14.5v4.793c1.328-1.434 2-3.042 2-4.793v-3a.5.5 0 0 1 1 0v3c0 2.387-1.067 4.522-3.172 6.347a.503.503 0 0 1-.328.122zM20 13a.5.5 0 1 1-1 0 .5.5 0 0 1 1 0zm-2 1a.5.5 0 1 1-1 0 .5.5 0 0 1 1 0zm-3 0a.5.5 0 1 1-1 0 .5.5 0 0 1 1 0zm-2-1a.5.5 0 1 1-1 0 .5.5 0 0 1 1 0z"/></g></svg>