<svg xmlns="http://www.w3.org/2000/svg" width="32" height="32" xml:space="preserve"><circle fill="#263238" cx="25" cy="21" r="1"/><circle fill="#263238" cx="25" cy="17" r="1"/><circle fill="#263238" cx="25" cy="13" r="1"/><circle fill="#263238" cx="13" cy="25" r="1"/><circle fill="#263238" cx="9" cy="25" r="1"/><circle fill="#263238" cx="13" cy="21" r="1"/><circle fill="#263238" cx="9" cy="21" r="1"/><circle fill="#263238" cx="5" cy="21" r="1"/><circle fill="#263238" cx="17" cy="25" r="1"/><circle fill="#263238" cx="17" cy="21" r="1"/><circle fill="#263238" cx="21" cy="21" r="1"/><circle fill="#263238" cx="21" cy="17" r="1"/><circle fill="#263238" cx="17" cy="17" r="1"/><circle fill="#263238" cx="13" cy="17" r="1"/><circle fill="#263238" cx="9" cy="17" r="1"/><circle fill="#263238" cx="5" cy="17" r="1"/><circle fill="#263238" cx="21" cy="13" r="1"/><circle fill="#263238" cx="17" cy="13" r="1"/><circle fill="#263238" cx="13" cy="13" r="1"/><circle fill="#263238" cx="9" cy="13" r="1"/><path fill="#263238" d="M6.5 29a.504.504 0 0 1-.354-.146l-5-5A.499.499 0 0 1 1.5 23h5a.5.5 0 0 1 .5.5v5a.5.5 0 0 1-.5.5zm-3.793-5L6 27.293V24H2.707zM16 4.5a.5.5 0 0 0-.5-.5H13v1h2.5a.5.5 0 0 0 .5-.5zm-4 0a.5.5 0 0 0-.5-.5H9v1h2.5a.5.5 0 0 0 .5-.5z"/><path fill="#263238" d="M27.5 4H25v1h2.5c.275 0 .5.225.5.5V9H2V5.5c0-.275.225-.5.5-.5h1a.5.5 0 0 0 0-1h-1C1.673 4 1 4.673 1 5.5v4a.5.5 0 0 0 .5.5h27a.5.5 0 0 0 .5-.5v-4c0-.827-.673-1.5-1.5-1.5z"/><path fill="#263238" d="M24 4.5a.5.5 0 0 0-.5-.5H21v1h2.5a.5.5 0 0 0 .5-.5zm-16 0a.5.5 0 0 0-.5-.5H5v1h2.5a.5.5 0 0 0 .5-.5zm12 0a.5.5 0 0 0-.5-.5H17v1h2.5a.5.5 0 0 0 .5-.5z"/><path d="M25.5 2a.5.5 0 0 0-.5.5v4a.5.5 0 0 0 1 0v-4a.5.5 0 0 0-.5-.5zm-4 0a.5.5 0 0 0-.5.5v4a.5.5 0 0 0 1 0v-4a.5.5 0 0 0-.5-.5zm-4 0a.5.5 0 0 0-.5.5v4a.5.5 0 0 0 1 0v-4a.5.5 0 0 0-.5-.5zm-4 0a.5.5 0 0 0-.5.5v4a.5.5 0 0 0 1 0v-4a.5.5 0 0 0-.5-.5zm-4 0a.5.5 0 0 0-.5.5v4a.5.5 0 0 0 1 0v-4a.5.5 0 0 0-.5-.5zm-4 0a.5.5 0 0 0-.5.5v4a.5.5 0 0 0 1 0v-4a.5.5 0 0 0-.5-.5zm8 26h-7a.5.5 0 0 0 0 1h7a.5.5 0 0 0 0-1zM1.5 9a.5.5 0 0 0-.5.5v12a.5.5 0 0 0 1 0V10h26v7.5a.5.5 0 0 0 1 0v-8a.5.5 0 0 0-.5-.5h-27z" fill="#263238"/><circle fill="#263238" cx="18.5" cy="30.5" r=".5"/><path fill="#263238" d="M15.5 31a.499.499 0 0 1-.339-.867l6.5-6a.502.502 0 0 1 .563-.08l2.678 1.339 5.245-5.245a.5.5 0 0 1 .707.707l-5.5 5.5a.504.504 0 0 1-.577.094l-2.691-1.346-6.246 5.766a.504.504 0 0 1-.34.132z"/><path fill="#263238" d="M30.5 24.031a.5.5 0 0 1-.5-.5v-2.526l-2.495.026H27.5a.5.5 0 0 1-.005-1l3-.031a.498.498 0 0 1 .505.5v3.031a.5.5 0 0 1-.5.5zm-10 6.469v-2 2zm0 .5a.5.5 0 0 1-.5-.5v-2a.5.5 0 0 1 1 0v2a.5.5 0 0 1-.5.5zm8-5.5v5-5zm0 5.5a.5.5 0 0 1-.5-.5v-5a.5.5 0 0 1 1 0v5a.5.5 0 0 1-.5.5zm-2-3.5v3-3zm0 3.5a.5.5 0 0 1-.5-.5v-3a.5.5 0 0 1 1 0v3a.5.5 0 0 1-.5.5zm-2-2.5v2-2zm0 2.5a.5.5 0 0 1-.5-.5v-2a.5.5 0 0 1 1 0v2a.5.5 0 0 1-.5.5zm-2-3.5v3-3zm0 3.5a.5.5 0 0 1-.5-.5v-3a.5.5 0 0 1 1 0v3a.5.5 0 0 1-.5.5z"/></svg>